<mxfile host="app.diagrams.net" modified="2023-05-29T19:05:47.054Z" agent="Mozilla/5.0 (Windows NT 10.0; Win64; x64) AppleWebKit/537.36 (KHTML, like Gecko) Chrome/113.0.0.0 Safari/537.36" etag="gehbRmRdpqdOoFbIaPI0" version="21.3.2" type="device">
  <diagram id="C5RBs43oDa-KdzZeNtuy" name="Page-1">
    <mxGraphModel dx="1285" dy="699" grid="1" gridSize="10" guides="1" tooltips="1" connect="1" arrows="1" fold="1" page="1" pageScale="1" pageWidth="827" pageHeight="1169" math="0" shadow="0">
      <root>
        <mxCell id="WIyWlLk6GJQsqaUBKTNV-0" />
        <mxCell id="WIyWlLk6GJQsqaUBKTNV-1" parent="WIyWlLk6GJQsqaUBKTNV-0" />
        <mxCell id="N6ge0U03ASirekIDalTP-3" style="edgeStyle=orthogonalEdgeStyle;rounded=0;orthogonalLoop=1;jettySize=auto;html=1;exitX=0.5;exitY=1;exitDx=0;exitDy=0;entryX=0.5;entryY=0;entryDx=0;entryDy=0;" edge="1" parent="WIyWlLk6GJQsqaUBKTNV-1" source="WIyWlLk6GJQsqaUBKTNV-3" target="N6ge0U03ASirekIDalTP-2">
          <mxGeometry relative="1" as="geometry" />
        </mxCell>
        <mxCell id="WIyWlLk6GJQsqaUBKTNV-3" value="begin" style="rounded=1;whiteSpace=wrap;html=1;fontSize=12;glass=0;strokeWidth=1;shadow=0;" parent="WIyWlLk6GJQsqaUBKTNV-1" vertex="1">
          <mxGeometry x="160" y="60" width="120" height="30" as="geometry" />
        </mxCell>
        <mxCell id="N6ge0U03ASirekIDalTP-1" value="end" style="rounded=1;whiteSpace=wrap;html=1;fontSize=12;glass=0;strokeWidth=1;shadow=0;" vertex="1" parent="WIyWlLk6GJQsqaUBKTNV-1">
          <mxGeometry x="550" y="265" width="120" height="40" as="geometry" />
        </mxCell>
        <mxCell id="N6ge0U03ASirekIDalTP-6" style="edgeStyle=orthogonalEdgeStyle;rounded=0;orthogonalLoop=1;jettySize=auto;html=1;exitX=0.5;exitY=1;exitDx=0;exitDy=0;entryX=0.5;entryY=0;entryDx=0;entryDy=0;" edge="1" parent="WIyWlLk6GJQsqaUBKTNV-1" source="N6ge0U03ASirekIDalTP-2" target="N6ge0U03ASirekIDalTP-5">
          <mxGeometry relative="1" as="geometry" />
        </mxCell>
        <mxCell id="N6ge0U03ASirekIDalTP-2" value="Array = [...];" style="shape=parallelogram;perimeter=parallelogramPerimeter;whiteSpace=wrap;html=1;fixedSize=1;" vertex="1" parent="WIyWlLk6GJQsqaUBKTNV-1">
          <mxGeometry x="145" y="110" width="150" height="30" as="geometry" />
        </mxCell>
        <mxCell id="N6ge0U03ASirekIDalTP-10" style="edgeStyle=orthogonalEdgeStyle;rounded=0;orthogonalLoop=1;jettySize=auto;html=1;exitX=0.5;exitY=1;exitDx=0;exitDy=0;entryX=0.5;entryY=0;entryDx=0;entryDy=0;" edge="1" parent="WIyWlLk6GJQsqaUBKTNV-1" source="N6ge0U03ASirekIDalTP-4" target="N6ge0U03ASirekIDalTP-9">
          <mxGeometry relative="1" as="geometry" />
        </mxCell>
        <mxCell id="N6ge0U03ASirekIDalTP-13" style="edgeStyle=orthogonalEdgeStyle;rounded=0;orthogonalLoop=1;jettySize=auto;html=1;exitX=1;exitY=0.5;exitDx=0;exitDy=0;entryX=0;entryY=0.5;entryDx=0;entryDy=0;" edge="1" parent="WIyWlLk6GJQsqaUBKTNV-1" source="N6ge0U03ASirekIDalTP-4" target="N6ge0U03ASirekIDalTP-12">
          <mxGeometry relative="1" as="geometry" />
        </mxCell>
        <mxCell id="N6ge0U03ASirekIDalTP-4" value="index &amp;lt; size" style="rhombus;whiteSpace=wrap;html=1;" vertex="1" parent="WIyWlLk6GJQsqaUBKTNV-1">
          <mxGeometry x="145" y="260" width="150" height="50" as="geometry" />
        </mxCell>
        <mxCell id="N6ge0U03ASirekIDalTP-7" style="edgeStyle=orthogonalEdgeStyle;rounded=0;orthogonalLoop=1;jettySize=auto;html=1;exitX=0.5;exitY=1;exitDx=0;exitDy=0;entryX=0.5;entryY=0;entryDx=0;entryDy=0;" edge="1" parent="WIyWlLk6GJQsqaUBKTNV-1" source="N6ge0U03ASirekIDalTP-5" target="N6ge0U03ASirekIDalTP-4">
          <mxGeometry relative="1" as="geometry" />
        </mxCell>
        <mxCell id="N6ge0U03ASirekIDalTP-5" value="index = 0;&lt;br&gt;size = Array.length()&lt;br&gt;length = Array[index].Length &amp;lt;=3" style="rounded=0;whiteSpace=wrap;html=1;" vertex="1" parent="WIyWlLk6GJQsqaUBKTNV-1">
          <mxGeometry x="125" y="170" width="190" height="60" as="geometry" />
        </mxCell>
        <mxCell id="N6ge0U03ASirekIDalTP-8" style="edgeStyle=orthogonalEdgeStyle;rounded=0;orthogonalLoop=1;jettySize=auto;html=1;exitX=0.5;exitY=1;exitDx=0;exitDy=0;" edge="1" parent="WIyWlLk6GJQsqaUBKTNV-1" source="N6ge0U03ASirekIDalTP-4" target="N6ge0U03ASirekIDalTP-4">
          <mxGeometry relative="1" as="geometry" />
        </mxCell>
        <mxCell id="N6ge0U03ASirekIDalTP-20" style="edgeStyle=orthogonalEdgeStyle;rounded=0;orthogonalLoop=1;jettySize=auto;html=1;exitX=1;exitY=0.5;exitDx=0;exitDy=0;entryX=1;entryY=0.5;entryDx=0;entryDy=0;" edge="1" parent="WIyWlLk6GJQsqaUBKTNV-1" source="N6ge0U03ASirekIDalTP-9" target="N6ge0U03ASirekIDalTP-17">
          <mxGeometry relative="1" as="geometry">
            <Array as="points">
              <mxPoint x="360" y="380" />
              <mxPoint x="360" y="560" />
            </Array>
          </mxGeometry>
        </mxCell>
        <mxCell id="N6ge0U03ASirekIDalTP-22" style="edgeStyle=orthogonalEdgeStyle;rounded=0;orthogonalLoop=1;jettySize=auto;html=1;exitX=0.5;exitY=1;exitDx=0;exitDy=0;entryX=0.5;entryY=0;entryDx=0;entryDy=0;" edge="1" parent="WIyWlLk6GJQsqaUBKTNV-1" source="N6ge0U03ASirekIDalTP-9" target="N6ge0U03ASirekIDalTP-21">
          <mxGeometry relative="1" as="geometry" />
        </mxCell>
        <mxCell id="N6ge0U03ASirekIDalTP-9" value="&lt;span style=&quot;white-space: pre;&quot;&gt;	&lt;/span&gt;Array[index].Length &amp;lt;=3" style="rhombus;whiteSpace=wrap;html=1;" vertex="1" parent="WIyWlLk6GJQsqaUBKTNV-1">
          <mxGeometry x="120" y="340" width="200" height="80" as="geometry" />
        </mxCell>
        <mxCell id="N6ge0U03ASirekIDalTP-11" value="Yes" style="text;html=1;align=center;verticalAlign=middle;resizable=0;points=[];autosize=1;strokeColor=none;fillColor=none;" vertex="1" parent="WIyWlLk6GJQsqaUBKTNV-1">
          <mxGeometry x="225" y="310" width="40" height="30" as="geometry" />
        </mxCell>
        <mxCell id="N6ge0U03ASirekIDalTP-16" style="edgeStyle=orthogonalEdgeStyle;rounded=0;orthogonalLoop=1;jettySize=auto;html=1;exitX=1;exitY=0.5;exitDx=0;exitDy=0;" edge="1" parent="WIyWlLk6GJQsqaUBKTNV-1" source="N6ge0U03ASirekIDalTP-12" target="N6ge0U03ASirekIDalTP-1">
          <mxGeometry relative="1" as="geometry" />
        </mxCell>
        <mxCell id="N6ge0U03ASirekIDalTP-12" value="print(NewArray&amp;nbsp;)" style="rounded=0;whiteSpace=wrap;html=1;" vertex="1" parent="WIyWlLk6GJQsqaUBKTNV-1">
          <mxGeometry x="380" y="255" width="120" height="60" as="geometry" />
        </mxCell>
        <mxCell id="N6ge0U03ASirekIDalTP-14" style="edgeStyle=orthogonalEdgeStyle;rounded=0;orthogonalLoop=1;jettySize=auto;html=1;exitX=0.5;exitY=1;exitDx=0;exitDy=0;" edge="1" parent="WIyWlLk6GJQsqaUBKTNV-1" source="N6ge0U03ASirekIDalTP-9" target="N6ge0U03ASirekIDalTP-9">
          <mxGeometry relative="1" as="geometry" />
        </mxCell>
        <mxCell id="N6ge0U03ASirekIDalTP-15" style="edgeStyle=orthogonalEdgeStyle;rounded=0;orthogonalLoop=1;jettySize=auto;html=1;exitX=0.5;exitY=1;exitDx=0;exitDy=0;" edge="1" parent="WIyWlLk6GJQsqaUBKTNV-1" source="N6ge0U03ASirekIDalTP-9" target="N6ge0U03ASirekIDalTP-9">
          <mxGeometry relative="1" as="geometry" />
        </mxCell>
        <mxCell id="N6ge0U03ASirekIDalTP-19" style="edgeStyle=orthogonalEdgeStyle;rounded=0;orthogonalLoop=1;jettySize=auto;html=1;exitX=0;exitY=0.5;exitDx=0;exitDy=0;entryX=0;entryY=0.5;entryDx=0;entryDy=0;" edge="1" parent="WIyWlLk6GJQsqaUBKTNV-1" source="N6ge0U03ASirekIDalTP-17" target="N6ge0U03ASirekIDalTP-4">
          <mxGeometry relative="1" as="geometry">
            <Array as="points">
              <mxPoint x="80" y="560" />
              <mxPoint x="80" y="285" />
            </Array>
          </mxGeometry>
        </mxCell>
        <mxCell id="N6ge0U03ASirekIDalTP-17" value="index = index + 1" style="rounded=0;whiteSpace=wrap;html=1;" vertex="1" parent="WIyWlLk6GJQsqaUBKTNV-1">
          <mxGeometry x="160" y="530" width="120" height="60" as="geometry" />
        </mxCell>
        <mxCell id="N6ge0U03ASirekIDalTP-23" style="edgeStyle=orthogonalEdgeStyle;rounded=0;orthogonalLoop=1;jettySize=auto;html=1;exitX=0.5;exitY=1;exitDx=0;exitDy=0;" edge="1" parent="WIyWlLk6GJQsqaUBKTNV-1" source="N6ge0U03ASirekIDalTP-21" target="N6ge0U03ASirekIDalTP-17">
          <mxGeometry relative="1" as="geometry" />
        </mxCell>
        <mxCell id="N6ge0U03ASirekIDalTP-21" value="NewArray = Array[index]" style="rounded=0;whiteSpace=wrap;html=1;" vertex="1" parent="WIyWlLk6GJQsqaUBKTNV-1">
          <mxGeometry x="145" y="450" width="150" height="60" as="geometry" />
        </mxCell>
        <mxCell id="N6ge0U03ASirekIDalTP-24" value="Yes" style="text;html=1;align=center;verticalAlign=middle;resizable=0;points=[];autosize=1;strokeColor=none;fillColor=none;" vertex="1" parent="WIyWlLk6GJQsqaUBKTNV-1">
          <mxGeometry x="225" y="420" width="40" height="30" as="geometry" />
        </mxCell>
        <mxCell id="N6ge0U03ASirekIDalTP-25" value="No" style="text;html=1;align=center;verticalAlign=middle;resizable=0;points=[];autosize=1;strokeColor=none;fillColor=none;" vertex="1" parent="WIyWlLk6GJQsqaUBKTNV-1">
          <mxGeometry x="290" y="248" width="40" height="30" as="geometry" />
        </mxCell>
        <mxCell id="N6ge0U03ASirekIDalTP-26" value="No" style="text;html=1;align=center;verticalAlign=middle;resizable=0;points=[];autosize=1;strokeColor=none;fillColor=none;" vertex="1" parent="WIyWlLk6GJQsqaUBKTNV-1">
          <mxGeometry x="320" y="350" width="40" height="30" as="geometry" />
        </mxCell>
      </root>
    </mxGraphModel>
  </diagram>
</mxfile>
